<svg width="48" height="48" viewBox="0 0 48 48" fill="none" xmlns="http://www.w3.org/2000/svg">
<path d="M24.2829 13.1798C23.815 13.4323 23.5232 13.9124 23.5232 14.4345V22.5654H7.46859C6.65793 22.5654 6 23.2081 6 23.9999C6 24.7918 6.65793 25.4345 7.46859 25.4345H23.5232V33.5654C23.5232 34.0895 23.815 34.5695 24.2829 34.8201C24.7509 35.0745 25.3227 35.0573 25.775 34.7799L41.3147 25.2145C41.7415 24.9506 42 24.4934 42 23.9999C42 23.5065 41.7415 23.0493 41.3147 22.7854L25.775 13.22C25.5361 13.0746 25.264 13 24.9918 13C24.749 13 24.5042 13.0612 24.2829 13.1798Z" fill="white"/>
</svg>
