<?xml version="1.0" standalone="no"?>
<!DOCTYPE svg PUBLIC "-//W3C//DTD SVG 20010904//EN"
 "http://www.w3.org/TR/2001/REC-SVG-20010904/DTD/svg10.dtd">
<svg version="1.0" xmlns="http://www.w3.org/2000/svg"
 width="512.000000pt" height="512.000000pt" viewBox="0 0 512.000000 512.000000"
 preserveAspectRatio="xMidYMid meet">

<g transform="translate(0.000000,512.000000) scale(0.100000,-0.100000)"
fill="#000000" stroke="none">
<path d="M2266 3825 c-116 -41 -166 -185 -106 -305 21 -40 41 -60 90 -86 33
-18 75 -19 950 -19 875 0 917 1 950 19 49 26 69 46 90 86 45 90 31 191 -34
256 -24 25 -58 46 -81 53 -28 8 -308 11 -930 11 -731 -1 -897 -3 -929 -15z"/>
<path d="M959 2747 c-29 -15 -54 -40 -74 -71 -25 -41 -29 -58 -29 -116 0 -58
4 -75 29 -116 20 -31 45 -56 74 -71 l44 -23 1557 0 1557 0 44 23 c29 15 54 40
74 71 25 41 29 58 29 116 0 58 -4 75 -29 116 -20 31 -45 56 -74 71 l-44 23
-1557 0 -1557 0 -44 -23z"/>
<path d="M1001 1698 c-66 -15 -126 -79 -141 -152 -17 -83 0 -148 54 -202 24
-25 57 -46 81 -53 56 -15 1794 -15 1850 0 23 7 57 28 81 53 65 65 79 166 34
256 -21 40 -41 60 -90 86 -33 18 -76 19 -930 21 -558 1 -911 -3 -939 -9z"/>
</g>
</svg>
